<?xml version="1.0" encoding="UTF-8"?>
<svg width="16px" height="16px" viewBox="0 0 16 16" version="1.1" xmlns="http://www.w3.org/2000/svg" xmlns:xlink="http://www.w3.org/1999/xlink">
    <!-- Generator: Sketch 49.2 (51160) - http://www.bohemiancoding.com/sketch -->
    <title>Artboard</title>
    <desc>Created with Sketch.</desc>
    <defs></defs>
    <g id="Artboard" stroke="none" stroke-width="1" fill="#0F9415" fill-rule="evenodd">
        <g id="新增-表格" fill="#0F9415" fill-rule="nonzero">
            <path d="M8,0 C3.581722,-2.705415e-16 5.41083001e-16,3.581722 0,8 C-5.41083001e-16,12.418278 3.581722,16 8,16 C12.418278,16 16,12.418278 16,8 C15.9952023,3.5837108 12.4162892,0.00479770845 8,0 Z M8,14.2589772 C4.54326237,14.2589772 1.74102284,11.4567376 1.74102284,8 C1.74102284,4.54326237 4.54326237,1.74102284 8,1.74102284 C11.4567376,1.74102284 14.2589772,4.54326237 14.2589772,8 C14.2541822,11.4547496 11.4547496,14.2541822 8,14.2589772 Z" id="Shape"></path>
            <path d="M10.7943417,7.12948858 L9.05331883,7.12948858 L9.05331883,5.38846572 C9.05331883,4.90769553 8.66357759,4.51795429 8.1828074,4.51795429 C7.70203721,4.51795429 7.31229597,4.90769553 7.31229597,5.38846572 L7.31229597,7.12948858 L5.57127312,7.12948858 C5.09050294,7.12948858 4.7007617,7.51922982 4.7007617,8 C4.7007617,8.48077018 5.09050294,8.87051142 5.57127312,8.87051142 L7.31229597,8.87051142 L7.31229597,10.6115343 C7.31229597,11.0923045 7.70203721,11.4820457 8.1828074,11.4820457 C8.66357759,11.4820457 9.05331883,11.0923045 9.05331883,10.6115343 L9.05331883,8.87051142 L10.7943417,8.87051142 C11.2751119,8.87051142 11.6648531,8.48077018 11.6648531,8 C11.6648531,7.51922982 11.2751119,7.12948858 10.7943417,7.12948858 Z" id="Shape"></path>
        </g>
    </g>
</svg>