<?xml version="1.0" encoding="UTF-8"?>
<svg width="16px" height="16px" viewBox="0 0 16 16" version="1.1" xmlns="http://www.w3.org/2000/svg" xmlns:xlink="http://www.w3.org/1999/xlink">
    <!-- Generator: Sketch 49.2 (51160) - http://www.bohemiancoding.com/sketch -->
    <title>Artboard Copy 2</title>
    <desc>Created with Sketch.</desc>
    <defs></defs>
    <g id="Artboard-Copy-2" stroke="none" stroke-width="1" fill="none" fill-rule="evenodd">
        <g id="删除" transform="translate(1.000000, 1.000000)" fill="#999999" fill-rule="nonzero">
            <path d="M13.2233351,2.33400132 L10.8913381,2.33400132 L10.8913381,0.777666392 C10.8913381,0.348173103 10.543165,6.67564279e-16 10.1136717,0 L3.88933411,0 L3.88833196,0 C3.45883867,0 3.11066557,0.348173103 3.11066557,0.777666392 L3.11066557,2.33299918 L0.777666392,2.33299918 C0.348173103,2.33299918 0,2.68117228 0,3.11066557 C0,3.54015886 0.348173103,3.88833196 0.777666392,3.88833196 L1.55533278,3.88833196 L1.55533278,13.2243373 C1.55533278,13.6552606 1.90408008,14.0020037 2.33299918,14.0020037 L11.665998,14.0020037 C11.7699072,14.0016087 11.8727304,13.9808398 11.9686466,13.9408727 C12.2565914,13.818642 12.4436049,13.5361491 12.4436644,13.2233351 L12.4436644,3.8913384 L12.4436644,3.88933411 L13.2213308,3.88933411 C13.6508241,3.88988757 13.9994459,3.54216315 13.9999993,3.11266986 C14.0005528,2.68317658 13.6528284,2.3345548 13.2233351,2.33400132 Z M4.66599835,1.55633493 L9.3360053,1.55633493 L9.3360053,2.33400132 L4.66599835,2.33400132 L4.66599835,1.55633493 Z M7.77666392,12.4466709 L6.22433758,12.4466709 L6.22433758,3.8913384 L6.22433758,3.88933411 L7.77666392,3.88933411 L7.77666392,12.4466709 Z M4.6690048,3.88933411 L4.6690048,12.4466709 L3.11166772,12.4466709 L3.11166772,3.8913384 L3.11166772,3.88933411 L4.6690048,3.88933411 Z M10.8903359,3.8913384 L10.8903359,12.4466709 L9.33299886,12.4466709 L9.33299886,3.8913384 L9.33199671,3.88933411 L10.8903359,3.88933411 L10.8903359,3.8913384 Z" id="Shape"></path>
        </g>
    </g>
</svg>