<?xml version="1.0" encoding="UTF-8"?>
<svg width="16px" height="16px" viewBox="0 0 16 16" version="1.1" xmlns="http://www.w3.org/2000/svg" xmlns:xlink="http://www.w3.org/1999/xlink">
    <!-- Generator: Sketch 49.2 (51160) - http://www.bohemiancoding.com/sketch -->
    <title>Artboard Copy 3</title>
    <desc>Created with Sketch.</desc>
    <defs></defs>
    <g id="Artboard-Copy-3" stroke="none" stroke-width="1" fill="none" fill-rule="evenodd">
        <g id="图形" fill-rule="nonzero">
            <rect id="Rectangle-path" fill="#000000" opacity="0" x="0" y="0" width="16" height="16"></rect>
            <path d="M13.9392,11.5288576 L13.9392,4.4711424 C14.4864085,4.23615147 14.8696747,3.69245867 14.8696747,3.0592 C14.8696747,2.21088427 14.1819904,1.5232 13.3336747,1.5232 C12.6972416,1.5232 12.1512107,1.91028907 11.9181653,2.46186667 L4.06478507,2.46186667 C3.83173973,1.91028907 3.2857088,1.5232 2.64927573,1.5232 C1.80096,1.5232 1.11327573,2.21088427 1.11327573,3.0592 C1.11327573,3.69902933 1.50452907,4.24741547 2.06081707,4.47834453 L2.06081707,11.5216555 C1.50454613,11.7525845 1.11327573,12.3009707 1.11327573,12.9408 C1.11327573,13.7891157 1.80096,14.4768 2.64927573,14.4768 C3.2857088,14.4768 3.83173973,14.0897109 4.06478507,13.5381333 L11.9181653,13.5381333 C12.1512107,14.0897109 12.6972416,14.4768 13.3336747,14.4768 C14.1819904,14.4768 14.8696747,13.7891157 14.8696747,12.9408 C14.8696747,12.3075243 14.4864085,11.7638315 13.9392,11.5288576 Z M13.3336747,2.46186667 C13.6635733,2.46186667 13.931008,2.72930133 13.931008,3.0592 C13.931008,3.38909867 13.6635733,3.65653333 13.3336747,3.65653333 C13.003776,3.65653333 12.7363413,3.38909867 12.7363413,3.0592 C12.7363413,2.72930133 13.003776,2.46186667 13.3336747,2.46186667 Z M2.64925867,2.46186667 C2.97915733,2.46186667 3.246592,2.72930133 3.246592,3.0592 C3.246592,3.38909867 2.97915733,3.65653333 2.64925867,3.65653333 C2.31936,3.65653333 2.05192533,3.38909867 2.05192533,3.0592 C2.05192533,2.72930133 2.31936,2.46186667 2.64925867,2.46186667 Z M2.64925867,13.5381333 C2.31936,13.5381333 2.05192533,13.2706987 2.05192533,12.9408 C2.05192533,12.6109013 2.31936,12.3434667 2.64925867,12.3434667 C2.97915733,12.3434667 3.246592,12.6109013 3.246592,12.9408 C3.246592,13.2706987 2.97915733,13.5381333 2.64925867,13.5381333 Z M11.9181483,12.3434667 L4.06478507,12.3434667 C3.91057067,11.978496 3.61925973,11.6856661 3.25546667,11.529216 L3.25546667,4.470784 C3.61925973,4.31433387 3.91057067,4.02152107 4.06478507,3.65653333 L11.9181653,3.65653333 C12.0747691,4.0271872 12.3728213,4.323328 12.7445504,4.47788373 L12.7445504,11.5221333 C12.3728043,11.676672 12.074752,11.9728128 11.9181483,12.3434667 Z M13.3336747,13.5381333 C13.003776,13.5381333 12.7363413,13.2706987 12.7363413,12.9408 C12.7363413,12.6109013 13.003776,12.3434667 13.3336747,12.3434667 C13.6635733,12.3434667 13.931008,12.6109013 13.931008,12.9408 C13.931008,13.2706987 13.6635733,13.5381333 13.3336747,13.5381333 Z" id="Shape" fill="#666666"></path>
        </g>
    </g>
</svg>