<?xml version="1.0" encoding="UTF-8"?>
<svg width="16px" height="16px" viewBox="0 0 16 16" version="1.1" xmlns="http://www.w3.org/2000/svg" xmlns:xlink="http://www.w3.org/1999/xlink">
    <!-- Generator: Sketch 49.2 (51160) - http://www.bohemiancoding.com/sketch -->
    <title>Artboard Copy 4</title>
    <desc>Created with Sketch.</desc>
    <defs></defs>
    <g id="Artboard-Copy-4" stroke="none" stroke-width="1" fill="none" fill-rule="evenodd">
        <g id="铅笔" fill-rule="nonzero">
            <rect id="Rectangle-path" fill="#000000" opacity="0" x="0" y="0" width="16" height="16"></rect>
            <path d="M8.6140625,3.953125 L12.046875,7.3859375 L5.1828125,14.25 L1.75,14.25 L1.75,10.8171875 L8.6140625,3.953125 Z M4.7453125,13.19375 L5.496875,12.4421875 L3.559375,10.5046875 L2.8078125,11.25625 L2.8078125,12.1390625 L3.8640625,12.1390625 L3.8640625,13.19375 L4.7453125,13.19375 Z M9.0609375,5.5375 C9.0609375,5.415625 9,5.3546875 8.878125,5.3546875 C8.821875,5.3546875 8.775,5.3734375 8.7375,5.4125 L4.2671875,9.8859375 C4.2296875,9.9234375 4.209375,9.9703125 4.209375,10.0265625 C4.209375,10.1484375 4.2703125,10.209375 4.3921875,10.209375 C4.4484375,10.209375 4.4953125,10.190625 4.5328125,10.1515625 L9.0046875,5.6796875 C9.040625,5.640625 9.0609375,5.59375 9.0609375,5.5375 Z M14.25,4.746875 C14.25,5.0390625 14.146875,5.2859375 13.9453125,5.4890625 L12.5765625,6.8578125 L9.14375,3.4265625 L10.5125,2.0640625 C10.7109375,1.85625 10.9578125,1.75 11.2546875,1.75 C11.546875,1.75 11.7953125,1.8546875 12.00625,2.0640625 L13.94375,3.9953125 C14.146875,4.2109375 14.25,4.4609375 14.25,4.746875 Z" id="Shape" fill="#666666"></path>
        </g>
    </g>
</svg>