<?xml version="1.0" encoding="UTF-8"?>
<svg width="16px" height="16px" viewBox="0 0 16 16" version="1.1" xmlns="http://www.w3.org/2000/svg" xmlns:xlink="http://www.w3.org/1999/xlink">
    <!-- Generator: Sketch 49.2 (51160) - http://www.bohemiancoding.com/sketch -->
    <title>Artboard Copy</title>
    <desc>Created with Sketch.</desc>
    <defs></defs>
    <g id="Artboard-Copy" stroke="none" stroke-width="1" fill="#0F9415" fill-rule="evenodd">
        <g id="编辑、修改" transform="translate(1.000000, 1.000000)" fill="#0F9415" fill-rule="nonzero">
            <path d="M12.4856149,6.72218384 L12.4810461,11.7353927 C12.4810461,12.6702905 11.2790016,12.6544683 10.8528861,12.6544683 L3.01661939,12.6544683 C1.85445051,12.6544683 1.52783718,11.3073927 1.52783718,10.3355883 L1.52783718,2.62117051 C1.52783718,1.73953496 2.06378385,1.52783718 3.02117052,1.52783718 L7.93192606,1.52783718 C8.60869051,1.52783718 9.1558194,1.50063718 9.1558194,0.790770516 C9.1558194,0.0808860639 8.7497394,0.00444162305 8.01194384,0.00444162305 L2.20451274,0.00444162305 C1.06815719,0.00444162305 0.00444162305,0.53016607 0.00444162305,1.90529495 L0.00444162305,11.3669305 C0.00444162305,13.216815 1.13155273,14.0044594 2.20451274,14.0044594 L11.7249394,14.0044594 C12.9346816,14.0044594 13.925295,13.2278905 13.925295,11.7354105 L13.925295,6.75786385 C13.925295,5.61537496 13.9560505,4.95987275 13.1829305,4.95987273 C12.3912505,4.95987273 12.485615,5.49516162 12.4856149,6.72218384 Z M5.25285052,8.7828594 L5.72374829,9.32995273 L4.91973051,9.65802384 L5.25285052,8.7828594 Z M10.8110727,2.93212162 L11.4921394,3.62058384 L6.43733051,8.75377496 L5.84335718,8.13025495 L10.8110905,2.93212162 L10.8110727,2.93212162 Z M12.1565483,3.00081496 L11.4013838,2.26671718 L11.8674283,1.7415794 C11.9734727,1.63153495 12.161295,1.61560607 12.2826816,1.7415794 C12.3359616,1.78133051 12.4026816,1.83432607 12.4828061,1.90054829 C12.6030016,1.99989051 12.6234994,2.00733941 12.7226105,2.11000606 C12.8217216,2.21269051 12.7874461,2.37347273 12.6704327,2.49062829 L12.1565483,3.00081496 Z M4.34538385,7.79990829 L3.64120606,10.469775 C3.59999718,10.6254194 3.64227273,10.793455 3.75343718,10.9113394 C3.8366194,10.9946994 3.94645052,11.0413661 4.06326829,11.0413661 C4.10204162,11.0413661 4.14081496,11.0364949 4.17903718,11.0257216 L6.74332163,10.3028061 C6.74735718,10.3028061 6.74924163,10.3068594 6.75194385,10.3068594 C6.78181051,10.3068594 6.81036163,10.2955349 6.83242385,10.272335 L13.6886727,3.18385495 C13.8927261,2.97318828 14.0044416,2.6856505 14.0044416,2.37329496 C14.0044416,2.0196594 13.8590727,1.66520607 13.6046905,1.40303719 L12.9572949,0.732459405 C12.7031794,0.469206075 12.3602461,0.318948292 12.0186283,0.318948292 C11.7163349,0.318948292 11.4388061,0.434397187 11.2336861,0.644814953 L4.37768607,7.73541051 C4.37068163,7.74216606 4.37309941,7.75187273 4.36771273,7.75969496 C4.3588594,7.77132162 4.34943718,7.78424607 4.34538385,7.79990829 Z" id="Shape"></path>
        </g>
    </g>
</svg>